<svg xmlns="http://www.w3.org/2000/svg" viewBox="0 0 24 30" x="0px" y="0px"><path d="M22,20.4889h-.6909L12.4473,2.7653a.5207.5207,0,0,0-.8946,0L2.6909,20.4889H2a.5.5,0,0,0,0,1H6a.5.5,0,0,0,0-1H3.8091l3.5-7h9.3818l3.5,7H18a.5.5,0,0,0,0,1h4a.5.5,0,0,0,0-1Zm-14.1909-8L12,4.1071l4.1909,8.3818Z"/><text x="0" y="39" fill="#000000" font-size="5px" font-weight="bold" font-family="'Helvetica Neue', Helvetica, Arial-Unicode, Arial, Sans-serif">Created by Royyan Wijaya</text><text x="0" y="44" fill="#000000" font-size="5px" font-weight="bold" font-family="'Helvetica Neue', Helvetica, Arial-Unicode, Arial, Sans-serif">from the Noun Project</text></svg>